<svg width="40" height="40" viewBox="0 0 40 40" fill="none" xmlns="http://www.w3.org/2000/svg">
<path d="M29.5573 20.9166C26.9973 12.8602 19.4397 16.587 18.6397 19.7872C16.9916 18.7046 13.1328 19.3163 12.7103 23.4104C6.16819 24.5398 8.94526 31.5515 12.7103 31.3633C12.7103 31.3633 29.7455 31.5515 30.8749 31.128C37.6889 27.9657 33.6043 20.9166 29.5573 20.9166Z" fill="#8C4318"/>
<path fill-rule="evenodd" clip-rule="evenodd" d="M17.7919 8.09607C17.7027 8.57865 17.2392 8.89757 16.7566 8.80841C16.2741 8.71925 15.9551 8.25577 16.0443 7.77319C16.1335 7.29061 16.5969 6.97168 17.0795 7.06084C17.5621 7.15001 17.881 7.61349 17.7919 8.09607ZM14.2812 22.2064C17.1767 22.7414 19.9576 20.8278 20.4926 17.9324C20.5319 17.7196 20.558 17.5074 20.5714 17.2967C19.8494 17.8096 19.2686 18.4356 18.9228 19.0768C18.7953 19.3134 18.6997 19.552 18.6407 19.7877C18.4392 19.6553 18.2045 19.5482 17.9471 19.4698C16.4058 19 14.0489 19.5565 13.0956 21.8419C13.4675 22.0058 13.8642 22.1294 14.2812 22.2064ZM12.4277 21.4887C12.9668 20.2411 13.8831 19.4145 14.9175 18.967C16.0091 18.4947 17.2379 18.4471 18.2331 18.7701C18.6001 18.068 19.1817 17.4188 19.8602 16.8881C20.078 16.7177 20.3099 16.5562 20.5535 16.4063C20.3138 14.1165 18.5976 12.1606 16.2185 11.721C13.323 11.1861 10.5421 13.0996 10.0072 15.9951C9.59745 18.2126 10.6239 20.363 12.4277 21.4887ZM13.4202 26.8666C13.9028 26.9558 14.3663 26.6369 14.4554 26.1543C14.5446 25.6717 14.2257 25.2082 13.7431 25.1191C13.2605 25.0299 12.797 25.3488 12.7079 25.8314C12.6187 26.314 12.9376 26.7775 13.4202 26.8666ZM24.1175 19.5057C23.635 19.4166 23.316 18.9531 23.4052 18.4705C23.4944 17.9879 23.9578 17.669 24.4404 17.7582C24.923 17.8473 25.2419 18.3108 25.1528 18.7934C25.0636 19.276 24.6001 19.5949 24.1175 19.5057ZM5.34698 15.1341C5.25782 15.6167 5.57674 16.0801 6.05932 16.1693C6.5419 16.2585 7.00539 15.9395 7.09455 15.457C7.18371 14.9744 6.86478 14.5109 6.3822 14.4217C5.89962 14.3326 5.43614 14.6515 5.34698 15.1341ZM23.3181 12.4911C22.9139 12.7693 22.3606 12.6671 22.0824 12.2628C21.8042 11.8586 21.9065 11.3053 22.3107 11.0271C22.715 10.7489 23.2683 10.8511 23.5464 11.2554C23.8246 11.6597 23.7224 12.213 23.3181 12.4911ZM6.95325 22.6723C7.23144 23.0766 7.78469 23.1788 8.18897 22.9006C8.59325 22.6224 8.69546 22.0692 8.41728 21.6649C8.13909 21.2606 7.58584 21.1584 7.18156 21.4366C6.77728 21.7148 6.67506 22.268 6.95325 22.6723ZM19.723 25.0321C19.4448 24.6278 19.5471 24.0746 19.9513 23.7964C20.3556 23.5182 20.9089 23.6204 21.1871 24.0247C21.4653 24.429 21.363 24.9822 20.9588 25.2604C20.5545 25.5386 20.0012 25.4364 19.723 25.0321ZM9.54186 8.66722C9.13758 8.94541 9.03537 9.49866 9.31355 9.90294C9.59174 10.3072 10.145 10.4094 10.5493 10.1312C10.9536 9.85306 11.0558 9.29981 10.7776 8.89553C10.4994 8.49125 9.94614 8.38903 9.54186 8.66722Z" fill="#8C4318"/>
</svg>
