<svg width="40" height="40" viewBox="0 0 40 40" fill="none" xmlns="http://www.w3.org/2000/svg">
<path d="M23.9977 10.0103L16.8298 22.2678C16.4218 22.9758 16.207 23.7791 16.207 24.5967C16.207 25.4143 16.4218 26.2175 16.8298 26.9256L18.3954 29.6713C18.8041 30.3758 19.3892 30.9612 20.0929 31.3696C20.7965 31.7781 21.5944 31.9954 22.4075 32.0002H25.5634C26.3765 31.9954 27.1744 31.7781 27.878 31.3696C28.5817 30.9612 29.1667 30.3758 29.5755 29.6713L31.1656 26.9256C31.5809 26.22 31.7999 25.4158 31.7999 24.5967C31.7999 23.7775 31.5809 22.9733 31.1656 22.2678L23.9977 10.0103Z" fill="#8C4318"/>
<path d="M9.20668 11.5981L5.34703 18.0612C5.12736 18.4345 5.01172 18.8581 5.01172 19.2892C5.01172 19.7203 5.12736 20.1438 5.34703 20.5171L6.19009 21.9649C6.41016 22.3363 6.72522 22.645 7.1041 22.8604C7.48299 23.0757 7.9126 23.1903 8.35046 23.1929H10.0497C10.4876 23.1903 10.9172 23.0757 11.2961 22.8604C11.675 22.645 11.99 22.3363 12.2101 21.9649L13.0663 20.5171C13.29 20.1451 13.4079 19.7211 13.4079 19.2892C13.4079 18.8573 13.29 18.4332 13.0663 18.0612L9.20668 11.5981Z" fill="#8C4318"/>
<path d="M16.0266 7.771L13.6373 11.5597C13.5013 11.7785 13.4297 12.0268 13.4297 12.2795C13.4297 12.5322 13.5013 12.7805 13.6373 12.9994L14.1592 13.848C14.2954 14.0658 14.4904 14.2467 14.725 14.373C14.9595 14.4992 15.2255 14.5664 15.4965 14.5679H16.5485C16.8195 14.5664 17.0855 14.4992 17.32 14.373C17.5546 14.2467 17.7496 14.0658 17.8858 13.848L18.4159 12.9994C18.5543 12.7813 18.6273 12.5327 18.6273 12.2795C18.6273 12.0263 18.5543 11.7778 18.4159 11.5597L16.0266 7.771Z" fill="#8C4318"/>
</svg>
