<svg width="40" height="40" viewBox="0 0 40 40" fill="none" xmlns="http://www.w3.org/2000/svg">
<path d="M10.5829 24.3271L6.1194 29.2502C5.95255 29.4342 5.96165 29.7189 6.13989 29.8917L10.2448 33.8716C10.4007 34.0227 10.6403 34.0425 10.8185 33.9191L14.1872 31.5855C14.2571 31.5371 14.3391 31.5093 14.4239 31.5053L22.0442 31.1478C22.1016 31.1451 22.158 31.1315 22.2103 31.1076L26.733 29.0502C26.7633 29.0365 26.7919 29.0194 26.8185 28.9994L30.9078 25.9157C31.1724 25.7161 31.1451 25.3077 30.8563 25.1458L29.6195 24.4528C29.4946 24.3828 29.3444 24.3759 29.2137 24.4343L23.1468 27.1445C23.0782 27.1751 23.0032 27.1882 22.9284 27.1826L20.9009 27.0303L17.5292 26.9525C17.1914 26.9447 17.1591 26.4038 17.4928 26.3507C19.6525 26.0073 22.0786 25.5586 22.5411 25.2149C23.1451 24.766 23.3066 23.6638 23.3483 23.0112C23.3657 22.7396 23.1289 22.5344 22.8615 22.5703L10.859 24.1817C10.7529 24.1959 10.6551 24.2474 10.5829 24.3271Z" fill="#8C4318"/>
<path d="M23.0172 16.7767C22.4929 15.8899 22.2324 13.4423 22.131 11.6679C22.1192 11.4616 21.9029 11.4419 21.8787 11.647C21.707 13.1058 21.7962 15.1448 21.9032 16.4406C21.9173 16.6116 21.7132 16.7061 21.5972 16.5808C17.4377 12.0872 20.5216 6.91924 22.7635 4.71579C22.84 4.6406 22.9642 4.65377 23.029 4.73943C27.0166 10.0126 24.9354 14.8589 23.2683 16.7913C23.1973 16.8735 23.0725 16.8704 23.0172 16.7767Z" fill="#8C4318"/>
<path d="M24.8851 21.886C25.1361 20.8849 26.6676 18.9684 27.8398 17.6414C27.9761 17.4872 27.837 17.3189 27.6761 17.4467C26.5321 18.3557 25.1658 19.8611 24.333 20.8538C24.2232 20.9847 24.0126 20.906 24.0184 20.7346C24.2272 14.5904 30.0307 13.1357 33.1605 13.1767C33.2673 13.1781 33.3459 13.276 33.3317 13.3827C32.4549 19.9557 27.5859 21.8981 25.0525 22.0753C24.9446 22.0829 24.8586 21.9917 24.8851 21.886Z" fill="#8C4318"/>
<path d="M19.7365 21.2425C19.4856 20.2415 17.954 18.325 16.7818 16.998C16.6456 16.8437 16.7847 16.6754 16.9456 16.8033C18.0896 17.7123 19.4559 19.2177 20.2886 20.2103C20.3985 20.3413 20.6091 20.2626 20.6032 20.0911C20.3944 13.9469 14.591 12.4923 11.4611 12.5332C11.3543 12.5346 11.2757 12.6325 11.29 12.7393C12.1668 19.3122 17.0358 21.2547 19.5692 21.4319C19.677 21.4394 19.763 21.3483 19.7365 21.2425Z" fill="#8C4318"/>
</svg>
