<svg width="40" height="40" viewBox="0 0 40 40" fill="none" xmlns="http://www.w3.org/2000/svg">
<path d="M21.2749 15.1308C21.4466 14.4586 22.4868 13.1698 23.2826 12.2772C23.3751 12.1735 23.2812 12.0608 23.1721 12.1469C22.3961 12.7589 21.4686 13.7716 20.9031 14.4392C20.8285 14.5273 20.6861 14.4748 20.6904 14.3598C20.8431 10.2367 24.7737 9.24983 26.8921 9.27148C26.9643 9.27222 27.0173 9.33775 27.0075 9.40942C26.4019 13.8214 23.1028 15.1339 21.3878 15.2575C21.3148 15.2628 21.2567 15.2018 21.2749 15.1308Z" fill="#8C4318"/>
<path d="M19.2179 14.4879C18.9906 13.5981 17.6137 11.892 16.5602 10.7105C16.4377 10.5731 16.562 10.424 16.7064 10.5379C17.7336 11.3482 18.9614 12.6887 19.71 13.5724C19.8087 13.689 19.9972 13.6196 19.9916 13.4673C19.7894 8.00941 14.5862 6.70297 11.7821 6.73163C11.6864 6.73261 11.6163 6.81935 11.6293 6.91423C12.431 12.7546 16.7981 14.492 19.0684 14.6557C19.1651 14.6626 19.2419 14.5819 19.2179 14.4879Z" fill="#8C4318"/>
<path d="M31.8739 32.5712H8.20218C7.4956 32.5712 6.48765 32.7934 6.6957 31.0743C6.95577 28.9255 8.2561 29.2958 9.0363 28.7586C9.8165 28.2213 9.5602 27.3374 10.0766 26.8783C10.4951 26.5062 11.3041 26.6832 11.7951 26.7593C12.0198 26.7941 12.1822 26.6388 12.2686 26.4285C12.6764 25.4346 13.6084 25.3357 14.3546 25.4878C14.7274 25.5638 15.1308 25.4026 15.3174 25.071C15.8842 24.0643 16.5582 23.8122 17.2073 23.912C17.7979 24.0028 18.7227 23.5077 19.2445 23.2166C19.5225 23.0615 19.8541 23.0033 20.1458 22.9983C20.3562 22.9947 20.5605 22.9185 20.7307 22.7947C21.3929 22.3132 21.9306 22.7239 22.2673 23.2367C22.467 23.5409 22.8374 23.7043 23.2012 23.6979C23.5848 23.6912 23.8594 23.8288 24.0477 24.0132C24.3222 24.2821 24.6948 24.5422 25.0741 24.4808C26.5528 24.2415 27.3765 24.6181 27.7654 25.0261C27.965 25.2355 28.2419 25.42 28.4649 25.6043C28.604 25.7192 28.7183 25.881 28.8092 26.0544C28.9956 26.4102 29.4299 26.5909 29.8019 26.7457L29.8119 26.7499C30.1182 26.8774 30.2737 27.2016 30.3405 27.5565C30.4197 27.9768 30.7781 28.3203 31.1926 28.4259C32.0315 28.6394 32.0851 29.4278 31.9094 30.1274C31.8144 30.5052 31.9909 30.9083 32.2947 31.1522C33.0842 31.7861 32.4653 32.5712 31.8739 32.5712Z" fill="#8C4318"/>
<path d="M19.3049 26.3182C20.1918 23.947 20.1277 18.5025 19.9828 15.089C19.9724 14.8441 20.3822 14.7912 20.4334 15.0309C20.4351 15.0391 20.4357 15.0395 20.4364 15.0478C20.4585 15.3132 21.4226 26.8586 21.9122 26.897L21.9171 26.897C21.9155 26.8971 21.9139 26.8971 21.9122 26.897L19.6745 26.897C19.3928 26.897 19.2062 26.582 19.3049 26.3182Z" fill="#8C4318"/>
</svg>
