<svg width="40" height="40" viewBox="0 0 40 40" fill="none" xmlns="http://www.w3.org/2000/svg">
<path d="M27.7634 20.0002C27.7634 24.2885 24.287 27.7649 19.9987 27.7649C15.7104 27.7649 12.234 24.2885 12.234 20.0002C12.234 15.7118 15.7104 12.2355 19.9987 12.2355C24.287 12.2355 27.7634 15.7118 27.7634 20.0002Z" fill="#8C4318"/>
<path d="M27.7634 20.0002C27.7634 24.2885 24.287 27.7649 19.9987 27.7649C15.7104 27.7649 12.234 24.2885 12.234 20.0002C12.234 15.7118 15.7104 12.2355 19.9987 12.2355C24.287 12.2355 27.7634 15.7118 27.7634 20.0002Z" fill="#8C4318"/>
<path d="M21.2928 6.62761C21.2928 7.34234 20.7134 7.92173 19.9987 7.92173C19.284 7.92173 18.7046 7.34234 18.7046 6.62761C18.7046 5.91289 19.284 5.3335 19.9987 5.3335C20.7134 5.3335 21.2928 5.91289 21.2928 6.62761Z" fill="#8C4318"/>
<path d="M21.2928 33.3727C21.2928 34.0874 20.7134 34.6668 19.9987 34.6668C19.284 34.6668 18.7046 34.0874 18.7046 33.3727C18.7046 32.658 19.284 32.0786 19.9987 32.0786C20.7134 32.0786 21.2928 32.658 21.2928 33.3727Z" fill="#8C4318"/>
<path d="M33.3712 21.2943C32.6565 21.2943 32.0771 20.7149 32.0771 20.0002C32.0771 19.2854 32.6565 18.706 33.3712 18.706C34.086 18.706 34.6654 19.2854 34.6654 20.0002C34.6654 20.7149 34.086 21.2943 33.3712 21.2943Z" fill="#8C4318"/>
<path d="M6.62615 21.2943C5.91143 21.2943 5.33203 20.7149 5.33203 20.0002C5.33203 19.2854 5.91143 18.706 6.62615 18.706C7.34087 18.706 7.92027 19.2854 7.92027 20.0002C7.92027 20.7149 7.34087 21.2943 6.62615 21.2943Z" fill="#8C4318"/>
<path d="M30.3703 11.4598C29.8649 11.9652 29.0455 11.9652 28.5401 11.4598C28.0347 10.9544 28.0347 10.135 28.5401 9.62963C29.0455 9.12424 29.8649 9.12424 30.3703 9.62963C30.8757 10.135 30.8757 10.9544 30.3703 11.4598Z" fill="#8C4318"/>
<path d="M11.4573 30.3711C10.9519 30.8765 10.1325 30.8765 9.62712 30.3711C9.12174 29.8657 9.12174 29.0463 9.62712 28.5409C10.1325 28.0355 10.9519 28.0355 11.4573 28.5409C11.9627 29.0463 11.9627 29.8657 11.4573 30.3711Z" fill="#8C4318"/>
<path d="M28.5399 30.3717C28.0345 29.8664 28.0345 29.047 28.5399 28.5416C29.0453 28.0362 29.8647 28.0362 30.3701 28.5416C30.8755 29.047 30.8755 29.8664 30.3701 30.3717C29.8647 30.8771 29.0453 30.8771 28.5399 30.3717Z" fill="#8C4318"/>
<path d="M9.62861 11.4587C9.12323 10.9534 9.12323 10.134 9.62861 9.62859C10.134 9.1232 10.9534 9.1232 11.4588 9.62859C11.9642 10.134 11.9642 10.9534 11.4588 11.4587C10.9534 11.9641 10.134 11.9641 9.62861 11.4587Z" fill="#8C4318"/>
</svg>
