<svg width="298" height="124" viewBox="0 0 298 124" fill="none" xmlns="http://www.w3.org/2000/svg">
<path d="M57.5664 37.9158H45.0746V27.4398H71.2466V55.7718H60.7705V47.7438C57.8545 53.6838 52.3104 56.7438 43.8144 56.7438C28.4064 56.7438 18.3266 45.1878 18.3266 28.7718C18.3266 12.5358 29.6666 0.799805 45.7586 0.799805C58.9346 0.799805 69.0866 8.3598 70.7786 20.4558L57.4586 20.9958C56.3786 15.0558 51.7705 11.4558 45.6865 11.4558C37.0465 11.4558 31.6824 18.2238 31.6824 28.7718C31.6824 39.5718 36.8305 46.1958 45.6865 46.1958C51.4825 46.2318 56.1264 43.1358 57.5664 37.9158Z" fill="black"/>
<path d="M112.611 34.5318L125.714 55.8078H111.314L100.227 37.0878H91.0106V55.8078H78.2304V1.87981H105.518C116.678 1.87981 124.166 9.11579 124.166 19.3038C124.166 26.4318 119.703 31.9758 112.611 34.5318ZM103.611 26.4318C107.931 26.4318 111.098 23.5878 111.098 19.4838C111.098 15.3078 107.931 12.3918 103.611 12.3918H91.0106V26.3958H103.611V26.4318Z" fill="black"/>
<path d="M131.079 1.87981H171.291V13.0398H144.039V22.9758H169.166V33.7758H144.039V44.6478H171.686V55.8078H131.079V1.87981Z" fill="black"/>
<path d="M177.591 1.87981H217.803V13.0398H190.551V22.9758H215.679V33.7758H190.551V44.6478H218.199V55.8078H177.591V1.87981Z" fill="black"/>
<path d="M224.102 1.87981H237.027V23.2998L256.898 1.87981H272.847L248.366 27.5478L273.17 55.8078H256.934L237.063 33.3798V55.8078H224.102V1.87981Z" fill="black"/>
<path d="M13.3586 68.8398V111.428H37.2626V122.768H0.398438V68.8398H13.3586Z" fill="black"/>
<path d="M43.4906 68.8398H83.7025V79.9998H56.4505V89.9358H81.5786V100.736H56.4505V111.608H84.0984V122.768H43.4906V68.8398Z" fill="black"/>
<path d="M125.966 104.876H113.475V94.3998H139.647V122.732H129.171V114.704C126.255 120.644 120.71 123.704 112.214 123.704C96.8064 123.704 86.7266 112.148 86.7266 95.7318C86.7266 79.4958 98.0666 67.7598 114.159 67.7598C127.335 67.7598 137.487 75.3198 139.179 87.4158L125.859 87.9558C124.779 82.0158 120.17 78.4158 114.086 78.4158C105.446 78.4158 100.082 85.1838 100.082 95.7318C100.082 106.532 105.23 113.156 114.086 113.156C119.882 113.192 124.526 110.096 125.966 104.876Z" fill="black"/>
<path d="M146.343 68.8398H186.555V79.9998H159.302V89.9358H184.43V100.736H159.302V111.608H186.95V122.768H146.343V68.8398Z" fill="black"/>
<path d="M192.855 122.732V68.8038H207.866L229.647 106.244V68.8038H241.202V122.732H226.118L204.411 85.3638V122.732H192.855Z" fill="black"/>
<path d="M247.539 122.732V68.8038H270.723C286.275 68.8038 297.363 79.8918 297.363 95.7678C297.363 111.572 286.275 122.732 270.723 122.732H247.539ZM269.966 112.112C278.678 112.112 284.366 105.812 284.366 95.7678C284.366 85.7598 278.679 79.4238 269.895 79.4238H260.498V112.076H269.966V112.112Z" fill="black"/>
</svg>
