<svg width="131" height="136" viewBox="0 0 131 136" fill="none" xmlns="http://www.w3.org/2000/svg">
<path fill-rule="evenodd" clip-rule="evenodd" d="M13.7949 134.089C10.3327 134.57 6.97575 134.961 3.54132 135.067L3.54754 134.745C3.58758 132.72 3.62342 130.908 2.63434 129.161C1.28934 126.785 1.40072 125.61 1.54898 124.045C1.63958 123.089 1.74394 121.988 1.53822 120.379C-0.821496 101.92 -1.47849 80.852 7.11848 63.9541C8.47095 61.2957 10.2934 58.9147 12.1312 56.5137L12.1312 56.5137C14.0552 54.0001 15.996 51.4645 17.432 48.5656C19.6671 44.0535 19.8554 39.7282 19.674 34.7863C19.4896 29.7585 17.8728 23.2356 16.6396 18.2601L16.6395 18.26L16.5352 17.8388C14.9887 11.5951 15.4783 7.62262 16.9836 1.54509C17.8477 -1.9439 24.3779 1.35761 27.343 2.85669L27.343 2.85672C27.7005 3.03743 28.0061 3.19195 28.2437 3.30522C31.5775 4.8942 30.7894 9.03501 30.0947 12.6855C29.8655 13.8895 29.6466 15.0402 29.589 16.0284C28.5711 33.4929 33.5544 49.3592 42.0449 64.3564C43.635 67.1651 44.7852 70.6726 44.7852 73.9114C44.7852 77.0687 44.8394 80.1783 44.8934 83.2722V83.2724V83.2725C44.9946 89.0717 45.0948 94.8157 44.835 100.716C44.8052 101.393 44.7772 102.052 44.75 102.695L44.7497 102.7C44.3526 112.067 44.1028 117.96 40.3011 127.25C40.0138 127.952 39.2719 129.324 38.5074 129.664C33.1092 132.061 26.3155 132.748 20.0135 133.386H20.0134C17.8578 133.604 15.7598 133.816 13.7949 134.089ZM110.197 134.707C107.888 135.033 105.651 135.297 103.361 135.369L103.365 135.151C103.392 133.781 103.416 132.555 102.756 131.373C101.86 129.766 101.934 128.971 102.033 127.913C102.093 127.266 102.163 126.521 102.025 125.433C100.452 112.946 100.014 98.694 105.746 87.2631C106.647 85.4647 107.862 83.8541 109.087 82.2298C110.37 80.5295 111.664 78.8142 112.621 76.8532C114.111 73.8009 114.237 70.875 114.116 67.5319C113.993 64.1307 112.915 59.7181 112.093 56.3524L112.023 56.0674C110.992 51.8438 111.319 49.1565 112.322 45.0452C112.898 42.685 117.252 44.9184 119.229 45.9325C119.467 46.0547 119.671 46.1593 119.829 46.2359C122.052 47.3108 121.526 50.1119 121.063 52.5814C120.91 53.3959 120.764 54.1743 120.726 54.8428C120.047 66.657 123.37 77.39 129.03 87.5352C130.09 89.4352 130.857 91.808 130.857 93.9989C130.857 96.1347 130.893 98.2382 130.929 100.331V100.331C130.996 104.254 131.063 108.14 130.89 112.131C130.87 112.586 130.852 113.029 130.834 113.461L130.833 113.474C130.568 119.81 130.402 123.796 127.867 130.081C127.676 130.556 127.181 131.484 126.672 131.714C123.073 133.335 118.544 133.8 114.343 134.232H114.342C112.905 134.379 111.507 134.523 110.197 134.707ZM53.9904 135.183C56.8906 135.091 59.7254 134.749 62.649 134.328C64.3083 134.089 66.08 133.903 67.9002 133.713C73.2219 133.155 78.9589 132.553 83.5174 130.456C84.1629 130.159 84.7894 128.958 85.032 128.343C88.2423 120.215 88.4533 115.059 88.7887 106.863C88.8117 106.299 88.8354 105.721 88.8607 105.126C89.0801 99.9637 88.9954 94.9376 88.91 89.8633C88.8644 87.1561 88.8186 84.4351 88.8186 81.6724C88.8186 78.8385 87.8473 75.7695 86.5046 73.3118C79.3348 60.1893 75.1268 46.3063 75.9862 31.0249C76.0349 30.1602 76.2198 29.1533 76.4133 28.0998C77 24.9056 77.6654 21.2824 74.8503 19.8921C74.6496 19.793 74.3915 19.6577 74.0896 19.4996C71.5858 18.1879 66.0714 15.2991 65.3417 18.352C64.0705 23.6698 63.6571 27.1457 64.963 32.609C64.9921 32.7307 65.0215 32.8535 65.0511 32.9775C66.0926 37.331 67.4578 43.0386 67.6136 47.438C67.7668 51.7622 67.6078 55.5468 65.7203 59.4949C64.5077 62.0314 62.8688 64.2501 61.2441 66.4495C59.6922 68.5504 58.1533 70.6337 57.0112 72.9598C49.7515 87.7455 50.3063 106.18 52.2989 122.331C52.4727 123.739 52.3845 124.703 52.308 125.539C52.1828 126.908 52.0888 127.937 53.2246 130.016C54.0598 131.544 54.0295 133.13 53.9957 134.902C53.9939 134.995 53.9921 135.089 53.9904 135.183Z" fill="#101010"/>
</svg>
