<svg width="620" height="221" viewBox="0 0 620 221" fill="none" xmlns="http://www.w3.org/2000/svg">
<path fill-rule="evenodd" clip-rule="evenodd" d="M611.14 103.982C614.238 101.56 616.96 98.5238 617.555 93.499C614.676 93.1013 614.426 93.499 613.174 95.8126C612.918 96.2802 612.555 96.6615 612.194 97.0405C611.413 97.8625 610.641 98.6735 610.984 100.331C611.004 100.426 610.744 100.597 610.474 100.776C610.331 100.87 610.185 100.967 610.076 101.054C609.777 101.285 609.488 101.522 609.201 101.758C608.587 102.262 607.984 102.757 607.323 103.151C607.193 103.231 607.062 103.314 606.928 103.399C606.093 103.931 605.191 104.505 604.381 104.38C602.566 104.127 601.252 104.127 600.344 106.441C600.112 107.027 599.718 107.502 599.323 107.979C598.549 108.912 597.771 109.852 598.185 111.646C598.342 112.333 597.528 113.634 596.902 114.249C596.559 114.59 596.207 114.923 595.854 115.256C593.671 117.32 591.497 119.374 591.551 123.359C591.551 123.612 591.395 123.901 591.27 124.118C588.485 129.07 578.91 129.576 576.062 124.588C574.529 121.913 572.995 121.985 570.899 122.527C568.521 123.142 566.111 123.648 564.109 121.081C563.796 120.647 562.857 120.72 562.262 120.828C561.627 120.967 560.996 121.158 560.365 121.35C559.348 121.659 558.329 121.968 557.287 122.057C554.596 122.31 552.562 123.322 551.373 126.576C550.809 128.167 549.558 130.046 548.306 130.48C546.704 131.024 545.124 131.716 543.541 132.41C539.127 134.344 534.694 136.286 529.719 135.035C528.999 134.854 527.653 135.722 527.278 136.517C525.4 140.638 522.803 143.422 518.892 144.615C517.796 144.94 516.732 146.277 516.075 147.47C515.425 148.656 514.897 149.939 514.367 151.225C513.928 152.291 513.488 153.359 512.977 154.375C511.319 157.628 509.003 158.641 505.937 157.628C504.81 157.267 503.684 156.797 502.62 156.219C499.491 154.52 496.361 152.82 492.732 153.327C492.137 153.399 491.104 152.604 490.823 151.881C489.477 148.555 488.225 145.157 487.099 141.723C486.755 140.71 486.504 138.939 486.943 138.397C488.726 136.156 488.132 134.131 487.381 131.709C486.129 127.769 486.849 125.564 489.696 123.286C490.948 122.274 491.386 121.117 490.729 119.238C489.728 116.418 490.166 115.767 492.7 114.9C493.264 114.719 494.077 113.924 494.108 113.345C494.202 111.863 494.108 110.309 493.795 108.899C493.662 108.257 493.261 107.707 492.861 107.158C492.697 106.933 492.533 106.708 492.387 106.477C492.2 106.795 492 107.105 491.802 107.414C491.437 107.98 491.075 108.543 490.792 109.152C490.692 109.382 490.733 109.693 490.775 110.01C490.812 110.291 490.85 110.577 490.792 110.815C490.604 111.465 490.197 112.514 489.884 112.514C489.321 112.55 488.57 112.044 488.163 111.502C487.819 110.995 487.693 110.128 487.693 109.405C487.6 104.85 487.756 100.44 491.855 97.9816C492.638 97.4755 493.326 96.5355 493.827 95.5957C494.262 94.8015 494.563 93.8911 494.865 92.978C494.976 92.6441 495.086 92.3098 495.204 91.9807C494.926 91.8464 494.649 91.6856 494.371 91.5244C493.677 91.1213 492.977 90.7155 492.262 90.7155C490.527 90.7155 488.786 90.7902 487.045 90.8648C484.953 90.9544 482.861 91.0441 480.778 91.0047C479.359 90.9806 477.941 90.6673 476.522 90.354C475.813 90.1973 475.104 90.0407 474.394 89.9202C474.167 89.875 473.939 89.8185 473.71 89.762C473.023 89.5926 472.337 89.4231 471.703 89.5587C469.607 89.9925 467.542 90.5348 465.539 91.33C462.874 92.3805 460.203 93.4149 457.532 94.4495C449.632 97.5088 441.729 100.57 433.965 104.055C426.925 107.236 421.136 104.669 415.503 100.151C414.564 99.3914 413.907 98.0538 413.406 96.8247C412.624 94.9088 411.498 93.8605 409.745 93.9328C407.73 94.0325 405.712 94.1231 403.694 94.2137C397.66 94.4846 391.622 94.7556 385.619 95.2703C384.742 95.3427 383.865 95.4426 382.991 95.5422C378.192 96.0888 373.474 96.6262 369.16 92.5591C368.44 91.8361 367.063 91.8361 365.999 91.9084C364.99 91.972 363.991 92.16 362.99 92.3484C362.285 92.4811 361.579 92.614 360.867 92.7037C354.077 93.5713 347.255 94.0412 340.528 92.1976C334.676 90.607 333.299 87.0283 336.115 80.7744C336.96 78.8585 336.553 77.7739 335.114 76.9425C334.619 76.6628 334.104 76.4144 333.589 76.1659C332.64 75.7077 331.69 75.249 330.858 74.5928C328.14 72.4676 325.061 72.1515 322 71.8373C321.573 71.7934 321.146 71.7495 320.72 71.7008C320.231 71.6495 319.68 72.1619 319.133 72.6705C318.909 72.8791 318.685 73.087 318.467 73.2552C318.102 73.5246 317.737 73.8736 317.371 74.2236C316.607 74.9541 315.839 75.689 315.056 75.7134C311.082 75.8942 307.014 75.7857 303.446 73.1468C301.788 71.9539 300.286 72.1708 298.628 73.3637C298.42 73.5141 298.209 73.6706 297.996 73.8291C296.569 74.889 295.028 76.034 293.558 76.0026C287.957 75.8942 282.356 75.3157 276.786 74.6289C275.084 74.4046 273.378 73.9781 271.679 73.5532C268.722 72.8138 265.785 72.0794 262.924 72.4238C254.881 73.3998 247.371 77.0871 240.581 82.618C239.142 83.8109 237.389 84.6424 235.699 85.1123C231.869 86.1284 228.039 86.9067 224.185 87.6898L222.995 87.932C219.961 88.5477 216.929 89.172 213.897 89.7963C203.043 92.0309 192.192 94.2651 181.283 96.1017C178.482 96.5677 175.568 96.014 172.668 95.463C171.519 95.2446 170.372 95.0266 169.235 94.8727C164.01 94.1858 162.946 92.5591 162.758 86.1968C162.712 84.8857 162.814 83.5561 162.915 82.226C163.161 79.0085 163.407 75.7883 161.569 72.8214C161.35 72.4238 161.381 71.6647 161.506 71.1586C162.351 67.5436 161.1 64.9047 159.159 62.2657C157.751 60.386 156.844 60.7475 155.467 62.1573C154.729 62.9061 153.848 63.4151 152.971 63.9215C152.621 64.1241 152.271 64.3263 151.931 64.5432C151.754 64.6637 151.552 64.7641 151.35 64.8645C150.947 65.0653 150.544 65.2662 150.335 65.6277C148.458 69.0257 145.766 68.8088 143.545 67.0375C139.821 64.0733 135.941 62.6995 131.56 61.6512C129.705 61.1862 127.924 60.2636 126.118 59.3282C123.992 58.2275 121.833 57.1092 119.481 56.6988C117.51 56.3372 117.134 53.9875 118.73 52.5054C119.825 51.4932 121.421 50.5172 122.704 50.6618C125.031 50.8921 127.33 51.3059 129.627 51.7192C131.655 52.0842 133.682 52.4488 135.722 52.6861C137.318 52.8669 139.383 52.7223 140.51 51.6378C141.946 50.2429 143.147 48.48 144.352 46.711C144.958 45.821 145.566 44.9295 146.204 44.0825C147.8 41.9858 147.644 39.8892 146.423 37.684C146.1 37.0959 145.744 36.5219 145.387 35.9477C144.603 34.6866 143.818 33.4244 143.388 32.0086C142.105 27.8152 139.571 26.55 136.191 25.1763C131.028 23.0796 126.616 23.405 121.891 26.3693C119.825 27.6706 119.012 29.0082 119.387 31.5748C119.465 32.0986 119.57 32.6179 119.674 33.1358C119.865 34.0835 120.055 35.0267 120.076 35.985C120.107 37.3949 120.138 39.2024 118.073 38.6963C114.443 37.7925 114.162 38.1179 113.63 42.7089C113.348 45.0947 112.816 47.589 110.438 47.9867C105.713 48.782 100.956 49.505 96.2 49.7942C94.7796 49.8742 93.3591 49.6108 91.9387 49.3475C90.7932 49.1351 89.6478 48.9227 88.5023 48.8904C85.5326 48.7941 82.5629 48.7799 79.5979 48.7658C77.0018 48.7534 74.4093 48.741 71.8236 48.6735L71.7705 48.6721C70.3989 48.6363 68.5601 48.5882 67.8495 47.589C65.8871 44.8552 63.419 44.5197 60.8624 44.1721C60.647 44.1428 60.4308 44.1134 60.2142 44.0825C56.3966 43.5041 54.832 41.7328 54.0186 37.2864C53.9016 36.6446 53.8324 35.9948 53.7632 35.3445C53.6843 34.6031 53.6054 33.861 53.4553 33.1292C53.1613 31.6522 52.8202 30.1872 52.479 28.7219C51.9852 26.6011 51.4913 24.4798 51.1397 22.3205C51.0173 21.5801 50.8831 20.8335 50.7482 20.0834C50.1585 16.8048 49.5569 13.46 49.888 10.2827C49.9563 9.64172 50.0252 9.08428 50.0858 8.59359C50.497 5.26547 50.5287 5.00866 47.447 2.58282C46.6648 1.96829 45.8826 1.31759 45.1315 0.666895C43.8485 -0.417578 42.8161 -0.164557 41.9086 1.31756C41.6485 1.72924 41.4003 2.15463 41.1521 2.58001C40.5939 3.53668 40.0357 4.49331 39.3425 5.29403C36.276 8.87286 35.9005 11.4756 37.4339 16.3919C37.5889 16.8967 37.7915 17.4033 37.9964 17.9154C38.7012 19.6774 39.4323 21.505 38.3412 23.5496C37.1834 25.7547 37.8093 27.4537 38.8107 29.4781C40.1875 32.2616 41.5017 35.262 42.065 38.3709C42.4694 40.6035 42.4221 42.9666 42.375 45.3263C42.3565 46.2525 42.3379 47.1781 42.3467 48.0951C42.4093 52.3608 41.6581 53.9875 38.31 55.1805C35.2746 56.2649 32.0828 57.1325 28.9223 57.494C27.7645 57.6386 26.2313 56.3734 25.3239 55.2166C25.2213 55.0853 25.1207 54.9545 25.0213 54.8252C23.9973 53.4949 23.0895 52.315 21.3497 52.2162C18.3457 52.0716 17.4381 50.8063 17.1565 47.1914C17.0927 46.3476 17.0661 45.4852 17.0394 44.6224C16.9749 42.5283 16.9102 40.4311 16.3118 38.5878C15.1539 35.009 14.9661 31.5387 15.0287 27.8514C15.0512 26.7083 14.912 25.5466 14.7739 24.393C14.7199 23.9414 14.6659 23.491 14.6218 23.0435C14.5123 23.0435 14.4107 23.0344 14.3089 23.0254C14.2072 23.0164 14.1055 23.0073 13.996 23.0073C13.7927 24.9324 12.9092 26.5051 12.0258 28.0775C10.8687 30.1369 9.71193 32.1958 10.0845 35.0451C10.1155 35.3134 10.1515 35.5886 10.188 35.8673C10.3731 37.2791 10.5704 38.7841 10.1785 39.9615C8.70778 44.3356 7.67519 48.6012 7.70644 53.4452V53.5876C7.7057 55.491 7.70522 56.6578 8.92677 57.9278C11.0858 60.1691 11.0235 60.8921 8.89552 63.1695C5.51601 66.7844 5.20302 70.5802 8.0193 74.5566C9.74037 76.9787 9.14589 80.7382 7.2997 83.0518C5.57863 85.1846 3.70119 87.7874 3.2317 90.5348C2.8373 92.99 3.0873 95.6047 3.33705 98.2176C3.44398 99.3364 3.55092 100.455 3.60719 101.56C3.61378 101.697 3.62453 101.838 3.63539 101.979C3.67604 102.508 3.71754 103.048 3.54457 103.476C2.73097 105.537 3.5132 107.019 4.63979 108.501C6.57985 111.068 6.26711 111.755 3.60719 113.237C2.19911 113.996 0.540543 115.442 0.133682 116.996C-0.3983 119.057 0.728165 121.009 2.26149 122.744C5.20302 126.106 8.45741 128.564 12.2749 130.227C12.9181 130.506 13.3548 131.456 13.8004 132.425C14.0486 132.965 14.2996 133.511 14.5906 133.95C14.7266 134.16 14.864 134.39 15.0039 134.623C15.5396 135.519 16.1111 136.475 16.781 136.589C18.338 136.862 19.9075 136.892 21.4815 136.921C22.4065 136.939 23.3333 136.956 24.2599 137.023C26.0263 137.155 27.7861 137.324 29.5454 137.493C31.6508 137.695 33.7554 137.897 35.8693 138.035C36.8392 138.108 37.872 137.963 38.8107 137.565C43.9113 135.469 49.1681 135.939 54.3001 136.553C56.7409 136.842 58.7122 136.987 60.5584 135.071C62.9679 132.577 65.8156 131.781 68.8822 132.432C70.6572 132.814 72.418 133.297 74.178 133.779C76.0791 134.301 77.9796 134.821 79.897 135.216C81.1001 135.464 82.2952 135.799 83.4909 136.135C86.991 137.117 90.4967 138.1 94.2285 136.915C96.3565 136.228 98.7973 136.228 100.988 136.625C104.868 137.348 108.717 138.397 110.657 143.422C111.064 144.47 112.409 145.554 113.411 145.663C116.016 145.961 118.64 146.015 121.268 146.07C122.143 146.088 123.018 146.106 123.893 146.133C124.113 146.133 124.363 145.988 124.519 145.807C126.427 143.317 128.748 143.592 131.076 143.868C131.688 143.941 132.3 144.014 132.905 144.036C133.975 144.072 135.048 144.131 136.122 144.189C139.354 144.366 142.596 144.543 145.766 144.108C149.146 143.638 151.931 144 154.935 145.952C161.6 150.254 168.578 150.832 175.744 147.398C177.147 146.727 178.719 146.51 180.271 146.296C180.726 146.233 181.18 146.17 181.627 146.097C182.424 145.967 183.232 145.902 184.04 145.838C185.485 145.723 186.927 145.608 188.292 145.121C191.609 143.964 192.767 144.217 194.832 147.615C194.889 147.711 194.946 147.81 195.004 147.909C195.487 148.742 196.011 149.646 196.71 150.001C197.618 150.459 198.517 150.941 199.416 151.424C203.411 153.566 207.388 155.699 212.011 155.64C219.772 155.532 226.406 158.713 231.131 166.521C231.221 166.67 231.31 166.822 231.399 166.974C231.806 167.669 232.219 168.373 232.758 168.907C233.415 169.558 234.26 170.389 235.074 170.425C239.735 170.678 244.427 170.751 249.119 170.823H249.124C251.108 170.869 253.093 170.876 255.075 170.883C257.718 170.892 260.357 170.9 262.986 171.004C266.146 171.112 269.088 172.088 271.529 174.908C275.002 178.92 276.536 184.09 278.006 189.332C278.945 192.657 279.446 196.091 277.349 199.237C277.036 199.706 276.911 200.502 276.974 201.116C277.07 202.129 277.149 203.148 277.229 204.167C277.432 206.784 277.636 209.401 278.131 211.925C278.663 214.636 278.538 216.625 276.379 218.143C276.026 218.397 275.798 218.921 275.573 219.436C275.479 219.652 275.385 219.866 275.284 220.059C275.435 220.157 275.591 220.284 275.75 220.414C276.118 220.714 276.499 221.024 276.848 220.999C277.643 220.945 278.44 220.9 279.239 220.855C282.245 220.685 285.265 220.514 288.207 219.914C289.734 219.599 291.23 219.003 292.72 218.41C294.652 217.641 296.573 216.876 298.534 216.733C300.948 216.557 303.391 217.184 305.845 217.814C306.922 218.09 308 218.367 309.079 218.577C309.333 218.631 309.586 218.695 309.839 218.759C310.431 218.908 311.022 219.057 311.614 219.083C315.463 219.227 319.28 219.299 323.129 219.336C323.891 219.336 324.652 219.13 325.391 218.931L325.633 218.866C326.175 218.721 326.717 218.54 327.26 218.36C328.345 217.998 329.429 217.637 330.514 217.564C334.347 217.347 338.18 217.194 342.012 217.04C345.846 216.887 349.68 216.733 353.514 216.516C354.922 216.444 356.611 215.938 357.644 214.889C361.962 210.515 366.907 209.539 372.195 210.551C375.668 211.238 378.86 210.587 382.083 209.25C383.178 208.78 384.305 208.274 385.431 207.949C388.874 206.936 392.19 205.635 394.663 202.273C395.069 201.731 395.664 201.261 396.227 201.08C397.81 200.603 399.39 200.104 400.97 199.606C405.14 198.289 409.311 196.973 413.532 196.055C420.452 194.567 427.27 195.834 434.084 197.101C435.713 197.404 437.342 197.706 438.972 197.971C441.256 198.369 443.76 198.803 445.919 198.116C450.268 196.706 454.649 194.935 458.655 192.513C462.754 190.055 466.791 188.934 471.297 189.874C474.645 190.561 477.962 190.488 481.216 188.934C484.596 187.343 488.069 187.307 491.574 188.609C492.462 188.931 493.431 189.039 494.383 189.146C494.606 189.171 494.828 189.196 495.047 189.223C495.432 189.28 495.817 189.338 496.202 189.395C498.508 189.74 500.814 190.086 503.121 190.271C503.971 190.348 504.839 190.474 505.71 190.602C508.142 190.956 510.601 191.315 512.79 190.597C518.082 188.846 523.205 186.413 528.333 183.977C529.451 183.446 530.569 182.915 531.69 182.391C534.944 180.873 538.105 180.294 541.547 181.306C542.83 181.668 544.676 181.523 545.709 180.656C548.494 178.306 551.717 179.029 553.469 182.789C553.751 183.403 554.533 184.126 555.034 184.09C556.329 183.989 557.632 184.094 558.937 184.199C561.384 184.397 563.839 184.594 566.268 183.439C567.134 183.018 568.15 183.057 569.145 183.095C569.516 183.109 569.885 183.124 570.242 183.114C572.776 183.042 574.529 184.234 575.405 187.307C576.219 190.235 577.752 191.067 580.161 189.91C581.82 189.102 583.416 188.161 585.012 187.219C585.915 186.686 586.818 186.154 587.734 185.644C588.032 185.482 588.339 185.283 588.65 185.083C589.51 184.527 590.394 183.957 591.176 184.09C594.283 184.549 596.442 182.705 598.626 180.84C599.191 180.357 599.759 179.873 600.344 179.427C600.73 179.13 601.142 178.888 601.549 178.648C602.135 178.304 602.713 177.965 603.192 177.474C603.401 177.267 603.627 177.055 603.859 176.838C604.882 175.88 606.012 174.821 606.165 173.643C606.535 170.517 607.923 167.908 609.307 165.305C610.965 162.187 612.619 159.077 612.517 155.098C612.499 154.87 612.645 154.655 612.797 154.431C612.91 154.263 613.027 154.091 613.08 153.905C613.186 153.528 613.298 153.153 613.409 152.779C614.184 150.172 614.949 147.599 613.8 144.723C611.954 140.096 612.861 137.602 616.835 135.432C618.588 134.493 620.09 133.227 619.996 130.95C619.385 130.838 618.775 130.778 618.18 130.72C616.854 130.589 615.607 130.467 614.614 129.793C612.893 128.636 611.516 126.648 610.295 124.732C609.95 124.2 610.062 123.255 610.171 122.347C610.209 122.022 610.248 121.702 610.264 121.406C610.296 120.919 610.363 120.428 610.43 119.939C610.561 118.978 610.691 118.028 610.546 117.141C610.363 116.034 609.914 114.984 609.466 113.936C609.3 113.547 609.133 113.158 608.981 112.767C606.947 107.742 607.323 106.983 611.14 103.982ZM266.364 128.648C267.466 129.142 267.808 129.826 268.112 132.03C268.264 132.106 269.176 132.03 269.252 131.878C269.252 130.586 269.442 128.42 269.632 127.318C269.214 127.28 268.416 127.242 267.58 127.09C266.402 126.938 265.11 126.824 264.084 126.824C261.766 126.824 259.752 127.242 258.27 128.04C255.192 129.598 253.862 132.524 253.862 135.488C253.862 141.112 257.32 144.532 263.59 144.532C265.338 144.532 267.124 144.152 267.96 143.81C268.644 143.468 269.784 141.074 270.126 139.858C270.05 139.592 269.328 139.212 269.138 139.326C268.416 140.542 267.694 141.644 267.01 142.214C266.212 142.86 265.3 142.974 264.388 142.974C259.486 142.974 257.282 139.326 257.282 135.222C257.282 130.662 259.448 128.04 263.286 128.04C264.578 128.04 265.528 128.23 266.364 128.648ZM278.442 127.204C278.328 127.28 278.252 128.154 278.404 128.306C279.012 128.344 279.734 128.458 280.228 128.572C280.874 128.724 281.102 129.028 281.14 129.788C281.178 130.548 281.178 133.018 281.178 135.906C281.178 137.388 281.14 140.656 281.102 141.264C281.064 142.29 280.76 142.594 280.114 142.784C279.81 142.86 278.936 142.974 278.366 143.05C278.214 143.126 278.252 143.962 278.366 144.114C278.598 144.114 279.029 144.097 279.562 144.077C280.427 144.044 281.559 144 282.546 144C283.677 144 284.823 144.044 285.693 144.077C286.226 144.098 286.656 144.114 286.916 144.114C287.03 144 287.106 143.164 286.954 143.05C286.232 142.974 285.51 142.86 285.13 142.746C284.484 142.556 284.294 142.366 284.218 141.454C284.142 140.542 284.142 138.414 284.142 136.932C284.142 136.894 284.18 136.78 284.256 136.78C284.674 136.78 285.434 136.742 285.814 136.78C286.118 136.78 286.46 136.932 286.65 137.236C286.785 137.431 286.934 137.648 287.094 137.879C288.143 139.404 289.64 141.576 290.564 142.632C291.058 143.202 291.514 143.506 291.932 143.696C292.92 144.19 295.504 144.228 296.72 144.19C296.91 144.152 296.986 143.202 296.872 143.126C295.39 142.898 294.782 142.784 293.794 141.758C292.388 140.39 290.184 137.578 289.234 136.058C289.234 136.05 289.232 136.04 289.23 136.027C289.223 135.976 289.211 135.891 289.272 135.83C290.906 135.184 292.54 133.854 292.54 131.536C292.54 129.218 290.868 127.28 287.448 127.28C286.961 127.28 286.287 127.287 285.515 127.295C284.479 127.306 283.265 127.318 282.09 127.318C281.569 127.318 280.717 127.284 279.948 127.253C279.313 127.227 278.734 127.204 278.442 127.204ZM284.18 129.028C284.18 128.952 284.332 128.686 284.408 128.686C284.712 128.534 285.206 128.534 285.434 128.534C288.056 128.534 289.538 129.712 289.538 132.296C289.538 134.12 288.626 134.994 287.676 135.26C286.954 135.488 285.168 135.45 284.332 135.412C284.218 135.412 284.142 135.298 284.142 135.184C284.142 133.208 284.142 129.978 284.18 129.028ZM303.515 127.204C303.363 127.28 303.325 128.192 303.439 128.306C304.085 128.382 304.883 128.496 305.301 128.61C305.947 128.8 306.061 129.066 306.137 129.94C306.175 130.434 306.175 132.486 306.175 134.956C306.175 137.996 306.175 140.58 306.137 141.226C306.061 142.214 305.909 142.518 305.225 142.708C304.693 142.822 303.591 142.936 302.717 143.012C302.603 143.126 302.641 144 302.717 144.114C303.107 144.114 303.592 144.096 304.179 144.075C305.078 144.042 306.216 144 307.619 144C310.041 144 311.57 144.03 312.793 144.054C313.949 144.077 314.833 144.094 315.941 144.076C317.157 144.076 317.347 143.962 317.575 143.506C318.031 142.48 318.601 140.352 318.715 139.516C318.677 139.288 317.803 139.06 317.651 139.098C317.309 139.934 316.853 140.846 316.359 141.492C315.827 142.214 315.447 142.518 314.307 142.556C313.129 142.594 310.545 142.556 309.937 142.404C309.633 142.29 309.291 141.872 309.253 141.226C309.215 139.896 309.215 137.768 309.215 136.514C309.215 136.438 309.291 136.286 309.367 136.286C310.583 136.286 312.445 136.286 313.319 136.362C313.889 136.4 314.117 136.78 314.269 137.198C314.345 137.54 314.421 137.768 314.535 138.376C314.687 138.49 315.561 138.452 315.713 138.338C315.675 137.578 315.637 136.324 315.637 135.564C315.637 134.728 315.751 133.322 315.827 132.79C315.713 132.676 314.839 132.6 314.649 132.676C314.573 133.094 314.497 133.474 314.383 133.816C314.231 134.234 314.041 134.69 313.319 134.728C312.369 134.766 310.773 134.766 309.367 134.766C309.291 134.766 309.215 134.652 309.215 134.576C309.189 133.742 309.198 132.471 309.206 131.188C309.21 130.542 309.215 129.892 309.215 129.294C309.215 129.142 309.367 128.8 309.595 128.762C309.937 128.686 313.243 128.686 313.737 128.762C314.649 128.838 315.029 129.18 315.219 129.902C315.371 130.32 315.485 130.852 315.599 131.498C315.675 131.612 316.549 131.612 316.701 131.422C316.777 130.092 316.929 128.154 317.157 127.356C317.157 127.318 317.043 127.166 317.005 127.166C316.359 127.28 315.029 127.318 313.699 127.318H307.695C306.768 127.318 305.72 127.278 304.871 127.245C304.293 127.223 303.807 127.204 303.515 127.204ZM331.524 142.746L329.434 143.012C329.32 143.126 329.32 144 329.434 144.114C329.677 144.114 330.036 144.1 330.498 144.081C331.335 144.047 332.511 144 333.956 144C335.514 144 337.604 144.076 338.782 144.114C338.934 144.038 339.01 143.126 338.896 143.012C337.908 142.898 337.262 142.822 336.806 142.708C336.16 142.518 335.97 142.062 335.894 141.53C335.801 140.419 335.809 135.471 335.815 131.515C335.816 130.6 335.818 129.739 335.818 128.99C335.818 128.914 335.856 128.762 335.97 128.724C336.578 128.724 338.25 128.724 339.2 128.762C339.808 128.8 340.188 129.066 340.454 129.712C340.682 130.32 340.91 131.346 341.062 132.372C341.138 132.486 342.088 132.486 342.202 132.372C342.316 130.928 342.544 128.154 342.81 127.128C342.81 127.014 342.506 126.9 342.43 126.938C341.594 127.242 341.062 127.318 340.036 127.318H329.206C328.18 127.318 327.572 127.204 326.964 126.938C326.888 126.862 326.546 126.976 326.508 127.014C326.432 128.23 326.204 131.004 325.938 132.182C326.052 132.334 326.888 132.524 327.078 132.41C327.496 131.232 327.838 130.358 328.18 129.75C328.522 129.142 329.016 128.8 329.548 128.762C330.308 128.724 332.094 128.686 332.588 128.724C332.664 128.724 332.74 128.876 332.74 128.952C332.74 133.436 332.74 138.718 332.664 140.808C332.626 142.062 332.398 142.556 331.524 142.746ZM351.171 127.204C351.019 127.28 350.98 128.192 351.094 128.306C351.74 128.382 352.538 128.496 352.957 128.61C353.603 128.8 353.717 129.066 353.792 129.94C353.83 130.434 353.83 132.486 353.83 134.956C353.83 137.996 353.83 140.58 353.792 141.226C353.717 142.214 353.564 142.518 352.88 142.708C352.349 142.822 351.246 142.936 350.373 143.012C350.259 143.126 350.297 144 350.373 144.114C350.763 144.114 351.248 144.096 351.835 144.075C352.734 144.042 353.872 144 355.275 144C357.697 144 359.226 144.03 360.449 144.054C361.605 144.077 362.489 144.094 363.597 144.076C364.812 144.076 365.003 143.962 365.23 143.506C365.687 142.48 366.256 140.352 366.37 139.516C366.333 139.288 365.458 139.06 365.307 139.098C364.964 139.934 364.509 140.846 364.015 141.492C363.483 142.214 363.103 142.518 361.963 142.556C360.785 142.594 358.201 142.556 357.593 142.404C357.288 142.29 356.947 141.872 356.908 141.226C356.87 139.896 356.87 137.768 356.87 136.514C356.87 136.438 356.947 136.286 357.022 136.286C358.239 136.286 360.1 136.286 360.974 136.362C361.545 136.4 361.772 136.78 361.925 137.198C361.969 137.401 362.015 137.563 362.067 137.788C362.104 137.943 362.144 138.128 362.191 138.376C362.343 138.49 363.217 138.452 363.369 138.338C363.33 137.578 363.292 136.324 363.292 135.564C363.292 134.728 363.406 133.322 363.483 132.79C363.369 132.676 362.495 132.6 362.304 132.676C362.229 133.094 362.152 133.474 362.038 133.816C361.886 134.234 361.697 134.69 360.974 134.728C360.025 134.766 358.428 134.766 357.022 134.766C356.947 134.766 356.87 134.652 356.87 134.576C356.845 133.742 356.854 132.471 356.862 131.188C356.866 130.542 356.87 129.892 356.87 129.294C356.87 129.142 357.022 128.8 357.25 128.762C357.593 128.686 360.899 128.686 361.392 128.762C362.304 128.838 362.684 129.18 362.875 129.902C363.026 130.32 363.141 130.852 363.255 131.498C363.33 131.612 364.204 131.612 364.356 131.422C364.432 130.092 364.584 128.154 364.812 127.356C364.812 127.318 364.698 127.166 364.661 127.166C364.015 127.28 362.684 127.318 361.354 127.318H355.35C354.423 127.318 353.375 127.278 352.526 127.245C351.948 127.223 351.463 127.204 351.171 127.204Z" fill="#A2886F"/>
</svg>
